<?xml version="1.0" encoding="UTF-8" standalone="no"?>
<svg
   id="Layer_2"
   data-name="Layer 2"
   viewBox="0 0 185.16999 185.17"
   version="1.1"
   width="185.17"
   height="185.17"
   xmlns="http://www.w3.org/2000/svg"
   xmlns:svg="http://www.w3.org/2000/svg">
  <defs
     id="defs1">
    <style
       id="style1">
      .cls-1 {
        fill: #eb5f2c;
      }

      .cls-2 {
        fill: #fff;
      }
    </style>
  </defs>
  <g
     id="Layer_1-2"
     data-name="Layer 1"
     transform="translate(-16,-16)">
    <g
       id="g11">
      <g
         id="g6" />
      <g
         id="g10">
        <path
           class="cls-2"
           d="m 49.74,16 h 117.69 c 11.67,0 22.01,6.01 28.07,15.08 -7.99,-5.49 -17.66,-8.7 -28.07,-8.7 H 49.74 c -10.41,0 -20.07,3.22 -28.07,8.7 C 27.73,22 38.07,16 49.74,16 Z M 16,72.12 C 16,53.56 31.18,38.38 49.74,38.38 h 117.69 c 18.56,0 33.74,15.18 33.74,33.74 v 95.31 c 0,18.56 -15.18,33.74 -33.74,33.74 H 49.74 C 31.18,201.17 16,185.99 16,167.43 Z"
           id="path7" />
        <g
           id="g9">
          <path
             class="cls-1"
             d="M 167.43,16 H 49.74 C 31.18,16 16,31.18 16,49.74 v 117.69 c 0,18.56 15.18,33.74 33.74,33.74 h 117.69 c 18.56,0 33.74,-15.18 33.74,-33.74 V 49.74 C 201.17,31.18 185.99,16 167.43,16 Z m 20.73,151.42 c 0,11.45 -9.28,20.74 -20.74,20.74 H 49.74 C 38.3,188.16 29,178.86 29,167.42 v -19.06 c 0,-6.76 7.98,-10.36 13.04,-5.88 l 10.82,9.56 c 3.79,3.35 9.71,2.29 12.1,-2.16 L 94,95.99 c 2.24,-4.15 7.61,-5.41 11.45,-2.67 l 25.92,18.42 c 3.84,2.73 9.2,1.49 11.44,-2.65 l 30.6,-56.37 c 3.88,-7.15 14.74,-4.39 14.74,3.74 v 110.96 z"
             id="path9" />
        </g>
      </g>
    </g>
  </g>
</svg>
