<?xml version="1.0" encoding="UTF-8"?>
<svg id="Layer_2" data-name="Layer 2" xmlns="http://www.w3.org/2000/svg" viewBox="0 0 444.01 444.01">
  <defs>
    <style>
      .cls-1 {
        fill: #eb5f2c;
      }

      .cls-2 {
        fill: #fff;
      }
    </style>
  </defs>
  <g id="Layer_1-2" data-name="Layer 1">
    <g>
      <rect class="cls-1" width="444.01" height="444.01"/>
      <g>
        <g>
          <rect class="cls-2" x="124.87" y="136.61" width="194.27" height="194.27" rx="33.74" ry="33.74"/>
          <path class="cls-2" d="M283.74,136.61c19.47,0,35.4,15.93,35.4,35.4v123.48c0,19.47-15.93,35.4-35.4,35.4h-123.48c-19.47,0-35.4-15.93-35.4-35.4v-123.48c0-19.47,15.93-35.4,35.4-35.4h123.48M283.74,119.82h-123.48c-28.77,0-52.18,23.41-52.18,52.18v123.48c0,28.77,23.41,52.18,52.18,52.18h123.48c28.77,0,52.18-23.41,52.18-52.18v-123.48c0-28.77-23.41-52.18-52.18-52.18h0Z"/>
        </g>
        <rect class="cls-1" x="124.87" y="113.13" width="194.27" height="194.27" rx="33.74" ry="33.74"/>
        <path class="cls-2" d="M283.74,113.13c19.47,0,35.4,15.93,35.4,35.4v123.48c0,19.47-15.93,35.4-35.4,35.4h-123.48c-19.47,0-35.4-15.93-35.4-35.4v-123.48c0-19.47,15.93-35.4,35.4-35.4h123.48M283.74,96.34h-123.48c-28.77,0-52.18,23.41-52.18,52.18v123.48c0,28.77,23.41,52.18,52.18,52.18h123.48c28.77,0,52.18-23.41,52.18-52.18v-123.48c0-28.77-23.41-52.18-52.18-52.18h0Z"/>
        <g>
          <path class="cls-2" d="M160.27,337.83h123.48c16.9,0,32.33-6.41,44-16.92l-176.15,16.33c2.84.38,5.73.59,8.67.59Z"/>
          <path class="cls-2" d="M206.71,197.05l-30.47,56.54c-2.52,4.67-8.72,5.78-12.7,2.27l-11.35-10.03c-5.32-4.69-13.68-.92-13.68,6.17v20h0c0,12,9.76,21.76,21.76,21.76h123.48c12.02,0,21.76-9.74,21.76-21.76v-116.42c0-8.54-11.39-11.43-15.47-3.93l-32.11,59.14c-2.36,4.34-7.98,5.64-12,2.78l-27.2-19.33c-4.03-2.87-9.67-1.55-12.02,2.81Z"/>
        </g>
      </g>
    </g>
  </g>
</svg>
