<?xml version="1.0" encoding="UTF-8"?>
<svg id="Layer_2" xmlns="http://www.w3.org/2000/svg" version="1.1" viewBox="0 0 444 444">
  <!-- Generator: Adobe Illustrator 30.0.0, SVG Export Plug-In . SVG Version: 2.1.1 Build 123)  -->
  <defs>
    <style>
      .st0 {
        fill: #eb5f2c;
      }

      .st1 {
        fill: #fff;
      }
    </style>
  </defs>
  <rect class="st0" y="0" width="444" height="444"/>
  <path class="st1" d="M335.9,148.5c0-28.8-23.4-52.2-52.2-52.2h0s-123.5,0-123.5,0c-28.8,0-52.2,23.4-52.2,52.2v123.5c0,1.1,0,2.1.1,3.2,0,1.3-.1,3.5-.1,6.8v13.5c0,28.8,23.4,52.2,52.2,52.2h123.5c28.8,0,52.2-23.4,52.2-52.2v-13.5c0-2.5,0-4.4-.2-6,.1-1.3.2-2.7.2-4v-123.5ZM124.9,148.5c0-19.5,15.9-35.4,35.4-35.4h123.5c19.5,0,35.4,15.9,35.4,35.4v123.5c0,19.5-15.9,35.4-35.4,35.4h-123.5c-19.5,0-35.4-15.9-35.4-35.4v-123.5Z"/>
  <path class="st1" d="M206.7,197.1l-30.5,56.5c-2.5,4.7-8.7,5.8-12.7,2.3l-11.4-10c-5.3-4.7-13.7-.9-13.7,6.2v20h0c0,12,9.8,21.8,21.8,21.8h123.5c12,0,21.8-9.7,21.8-21.8v-116.4c0-8.5-11.4-11.4-15.5-3.9l-32.1,59.1c-2.4,4.3-8,5.6-12,2.8l-27.2-19.3c-4-2.9-9.7-1.6-12,2.8h0Z"/>
</svg>